<svg xmlns="http://www.w3.org/2000/svg" width="1440" height="3463" viewBox="0 0 1440 3463" fill="none"><link xmlns="" type="text/css" rel="stylesheet" id="dark-mode-custom-link"/><link xmlns="" type="text/css" rel="stylesheet" id="dark-mode-general-link"/><style xmlns="" lang="en" type="text/css" id="dark-mode-custom-style"/><style xmlns="" lang="en" type="text/css" id="dark-mode-native-style"/><style xmlns="" lang="en" type="text/css" id="dark-mode-native-sheet"/>
<g filter="url(#filter0_f)">
<path d="M898.618 -528.417C769.65 -548.439 639.891 -533.754 519.695 -485.024L441.566 -563.153C399.776 -604.943 331.585 -604.585 289.353 -562.353L44.5323 -317.532C2.30075 -275.301 1.94228 -207.109 43.7322 -165.32L121.861 -87.1906C73.1313 33.0059 58.4461 162.765 78.4685 291.732C102.048 438.946 169.535 572.535 274.918 677.918C380.302 783.302 513.89 850.789 661.104 874.368C805.277 897.355 950.905 875.28 1082.74 812.486C1082.74 812.486 1082.74 812.486 1083.36 811.874C1083.97 811.262 1085.18 811.256 1085.18 811.256C1089.46 809.407 1094.34 806.946 1098.01 804.491C1099.84 803.873 1100.45 803.261 1102.28 802.642C1105.94 800.188 1109.6 798.951 1113.27 796.496C1115.1 795.878 1115.71 795.266 1117.54 794.647C1121.21 792.192 1125.48 790.343 1129.14 787.889C1129.76 787.277 1131.59 786.658 1132.2 786.046C1137.08 783.585 1141.36 780.519 1145.03 778.064L1145.64 777.452C1149.3 774.997 1152.36 773.155 1156.02 770.7C1156.63 770.088 1156.63 770.088 1157.25 769.476C1160.91 767.022 1164.58 764.567 1168.24 762.112C1168.86 761.5 1169.47 760.888 1169.47 760.888C1172.52 759.046 1175.58 757.203 1178.02 754.755C1178.64 754.143 1180.47 753.524 1181.08 752.912L1181.69 752.3C1184.74 750.458 1187.19 748.009 1190.25 746.167C1190.86 745.555 1191.47 744.943 1191.47 744.943C1193.31 743.107 1195.14 742.488 1196.97 740.652C1200.03 738.81 1202.47 736.361 1205.53 734.519C1211.64 729.616 1217.14 725.325 1223.26 720.422L1223.87 719.81C1228.15 716.744 1231.82 713.071 1236.71 709.393L1237.32 708.781C1240.38 705.72 1244.05 703.266 1247.11 700.205C1247.72 699.593 1248.95 698.369 1249.56 697.757C1252.01 695.309 1255.07 692.249 1257.51 689.801L1258.74 688.577C1259.96 687.352 1260.57 686.74 1261.8 685.516C1266.08 681.232 1269.76 677.56 1274.04 673.275C1278.32 668.991 1282 665.319 1286.28 661.034C1287.51 659.81 1288.12 659.198 1289.34 657.974L1290.57 656.75C1293.01 654.302 1296.07 651.241 1298.52 648.793C1299.13 648.181 1300.36 646.957 1300.97 646.345C1304.03 643.285 1306.49 639.619 1309.55 636.558L1310.16 635.946C1313.83 632.274 1317.51 627.384 1320.58 623.106L1321.19 622.494C1326.09 616.38 1330.38 610.878 1335.28 604.764C1337.73 602.316 1338.96 599.874 1340.8 596.82L1341.42 596.208C1343.25 594.372 1343.87 592.542 1345.71 590.706L1346.32 590.094C1348.77 586.428 1351.22 583.98 1353.68 580.314C1353.68 580.314 1353.68 580.314 1354.29 579.702C1354.9 579.09 1355.51 578.478 1355.52 577.26C1357.97 573.594 1360.43 569.928 1362.88 566.262C1363.5 565.65 1364.11 565.038 1364.11 565.038C1366.56 561.372 1369.02 557.706 1371.47 554.04C1373.31 550.986 1375.16 547.933 1377 544.879C1377.61 544.267 1378.23 542.437 1378.84 541.825L1379.45 541.213C1382.52 536.935 1384.98 532.051 1387.44 527.168C1388.05 526.556 1388.67 524.726 1389.28 524.114C1391.74 520.448 1393.59 516.176 1396.04 512.51C1396.66 510.681 1397.27 510.069 1397.89 508.239C1400.35 504.573 1402.2 500.301 1404.04 497.248C1404.66 495.418 1405.27 494.806 1405.89 492.976C1408.35 488.092 1410.81 483.209 1413.27 478.325L1413.88 477.713C1477.28 346.48 1498.75 200.247 1475.76 56.0745C1452.18 -91.1395 1384.7 -224.728 1279.31 -330.111C1173.93 -435.495 1046.44 -505.449 898.618 -528.417ZM877.245 -400.449C997.695 -381.6 1106.99 -326.161 1193.6 -239.553C1240.84 -192.313 1278.92 -138.327 1306.61 -78.8064C1177.58 -86.6518 1051.09 -115.211 931.405 -163.897C867.613 -189.742 806.888 -219.864 748.631 -256.088L620.838 -383.881C703.77 -408.67 790.865 -414.607 877.245 -400.449ZM646.96 437.908L940.095 731.043C893.14 745.293 844.393 752.856 795.067 754.941C753.023 645.572 703.049 539.289 646.96 437.908ZM1044.79 40.0748C1146.78 96.7691 1252.46 146.138 1361.83 188.182C1360.35 236.896 1352.18 286.255 1337.93 333.21L1044.79 40.0748ZM150.681 -241.986L364.899 -456.204L458.775 -362.328L1281.85 460.751C1279.4 464.417 1276.94 469.3 1274.48 472.966C1273.87 473.578 1273.26 474.19 1273.25 475.408C1271.41 478.462 1270.18 480.904 1267.73 483.352C1267.12 483.964 1266.51 484.576 1267.11 485.182L1266.5 485.794C1265.27 488.236 1262.82 490.684 1261.59 493.126C1260.98 493.738 1260.37 494.35 1260.36 495.567C1259.13 498.009 1257.3 499.845 1255.45 502.899C1254.23 504.123 1254.22 505.341 1253 506.565L1252.39 507.177C1249.93 510.843 1247.48 514.509 1244.42 517.569C1242.58 519.405 1241.35 521.847 1239.51 523.683L1238.9 524.296C1238.29 524.908 1237.07 526.132 1237.06 527.349L1235.22 529.185C1234.61 529.798 1234.61 529.797 1234 530.41C1232.77 531.634 1231.55 532.858 1230.32 535.3C1229.1 536.524 1227.87 537.748 1227.25 539.578L1226.03 540.802L1225.42 541.414C1224.19 542.638 1222.97 543.862 1221.74 546.304L1221.13 546.916C1219.9 548.14 1218.07 549.976 1217.45 551.806L1216.84 552.418C1215 554.254 1213.78 555.478 1211.94 557.314L1211.33 557.926L1210.72 558.538C1209.49 559.763 1208.27 560.987 1207.66 561.599C1207.66 561.599 1207.66 561.599 1207.04 562.211C1205.21 564.047 1203.37 565.883 1201.53 567.719L1200.92 568.331L1199.09 570.167C1198.47 570.779 1198.47 570.779 1197.86 571.391C1194.19 575.064 1191.13 578.124 1187.46 581.796C1183.79 585.469 1180.72 588.529 1177.05 592.201C1176.44 592.813 1176.44 592.813 1175.83 593.425L1173.99 595.261L1173.38 595.874C1171.54 597.71 1169.71 599.546 1168.48 600.77C1168.48 600.77 1168.48 600.77 1167.87 601.382C1166.65 602.606 1166.04 603.218 1164.81 604.442L1164.2 605.054L1163.59 605.666C1161.75 607.503 1160.53 608.727 1158.69 610.563L1158.08 611.175C1156.85 612.399 1155.02 614.235 1153.19 614.854L1152.58 615.466C1151.35 616.69 1150.13 617.914 1147.69 619.144L1147.07 619.756L1145.85 620.98C1144.63 622.204 1143.4 623.429 1141.57 624.047C1140.35 625.271 1139.12 626.495 1136.68 627.726C1136.07 628.338 1136.07 628.338 1135.46 628.95L1133.62 630.786C1133.01 631.398 1131.79 632.622 1130.57 632.629L1129.96 633.241C1127.51 635.689 1125.07 636.919 1122.62 639.368C1119.56 641.21 1116.5 644.27 1112.84 646.725L1112.23 647.337C1111 648.561 1109.17 649.18 1107.95 650.404C1105.51 651.634 1103.67 653.47 1101.23 654.701C1100.62 655.313 1100 655.925 1098.79 655.931C1096.34 657.162 1093.9 659.61 1091.45 660.841L1090.84 661.453C1090.23 662.065 1089.62 662.677 1089.01 662.071C1085.96 663.914 1083.52 665.144 1081.07 667.592C1080.46 668.204 1079.85 668.816 1078.63 668.823C1074.96 671.277 1070.08 673.738 1066.41 676.193L243.333 -146.886L149.457 -240.762L150.681 -241.986ZM206.436 270.359C192.89 183.367 198.827 96.2728 223.005 13.953L350.797 141.745C386.415 199.397 417.143 260.728 442.988 324.52C491.062 444.816 519.628 570.086 528.079 699.723C469.171 671.418 414.573 633.957 367.332 586.716C280.724 500.108 225.286 390.81 206.436 270.359ZM593.088 725.561C588.271 599.558 565.176 476.086 523.789 357.581C602.28 482.588 669.168 614.354 723.847 752.272C710.459 751.124 696.465 749.371 682.471 747.618C652.666 742.296 622.262 735.149 593.088 725.561ZM1353.89 76.1977C1355.64 90.1917 1357.4 104.186 1358.54 117.574C1221.84 62.8886 1088.86 -3.99279 963.854 -82.4841C1082.36 -41.0975 1205.23 -18.6078 1331.83 -13.185C1342.03 15.3766 1349.79 45.1687 1353.89 76.1977Z" fill="url(#paint0_radial)" fill-opacity="0.5"/>
</g>
<g filter="url(#filter1_f)">
<path d="M-245 1995L975.5 3215.5" stroke="url(#paint1_linear)" stroke-opacity="0.45" stroke-width="224"/>
</g>
<defs>
<filter id="filter0_f" x="-175.377" y="-782.263" width="1848.1" height="1853.5" filterUnits="userSpaceOnUse" color-interpolation-filters="sRGB">
<feFlood flood-opacity="0" result="BackgroundImageFix"/>
<feBlend mode="normal" in="SourceGraphic" in2="BackgroundImageFix" result="shape"/>
<feGaussianBlur stdDeviation="94" result="effect1_foregroundBlur"/>
</filter>
<filter id="filter1_f" x="-492.196" y="1747.8" width="1714.89" height="1714.89" filterUnits="userSpaceOnUse" color-interpolation-filters="sRGB">
<feFlood flood-opacity="0" result="BackgroundImageFix"/>
<feBlend mode="normal" in="SourceGraphic" in2="BackgroundImageFix" result="shape"/>
<feGaussianBlur stdDeviation="84" result="effect1_foregroundBlur"/>
</filter>
<radialGradient id="paint0_radial" cx="0" cy="0" r="1" gradientUnits="userSpaceOnUse" gradientTransform="translate(836.241 233.028) rotate(62.8189) scale(626.098 567.484)">
<stop offset="0.0397015" stop-color="#948CC9"/>
<stop offset="0.624448" stop-color="#E0F2FE"/>
<stop offset="1" stop-color="#948CC9"/>
</radialGradient>
<linearGradient id="paint1_linear" x1="302" y1="2338" x2="302" y2="3288" gradientUnits="userSpaceOnUse">
<stop offset="0.169474" stop-color="#D4E5F2"/>
<stop offset="0.487368" stop-color="#EEEFF7"/>
</linearGradient>
</defs>
</svg>